<svg width="40" height="40" viewBox="0 0 40 40" fill="none" xmlns="http://www.w3.org/2000/svg">
<rect width="40" height="40" rx="20" fill="#131B2E"/>
<path d="M13.3333 26.6667C12.875 26.6667 12.4826 26.5035 12.1562 26.1771C11.8299 25.8507 11.6667 25.4584 11.6667 25V15C11.6667 14.5417 11.8299 14.1493 12.1562 13.823C12.4826 13.4966 12.875 13.3334 13.3333 13.3334H26.6667C27.125 13.3334 27.5174 13.4966 27.8437 13.823C28.1701 14.1493 28.3333 14.5417 28.3333 15V25C28.3333 25.4584 28.1701 25.8507 27.8437 26.1771C27.5174 26.5035 27.125 26.6667 26.6667 26.6667H13.3333ZM20 20.8334L13.3333 16.6667V25H26.6667V16.6667L20 20.8334ZM20 19.1667L26.6667 15H13.3333L20 19.1667ZM13.3333 16.6667V15V16.6667V25V16.6667Z" fill="white"/>
</svg>
