<svg width="45" height="48" viewBox="0 0 45 48" fill="none" xmlns="http://www.w3.org/2000/svg">
<rect width="44.23" height="48" rx="22.115" fill="#22C55E"/>
<path d="M13.115 19V15L17.115 17L13.115 19ZM28.115 19V15L32.115 17L28.115 19ZM21.115 18V14L25.115 16L21.115 18ZM21.115 34C19.8483 33.9667 18.6692 33.8625 17.5775 33.6875C16.4858 33.5125 15.5358 33.2917 14.7275 33.025C13.9192 32.7583 13.2817 32.45 12.815 32.1C12.3483 31.75 12.115 31.3833 12.115 31V22C12.115 21.5833 12.3775 21.1958 12.9025 20.8375C13.4275 20.4792 14.14 20.1625 15.04 19.8875C15.94 19.6125 16.9983 19.3958 18.215 19.2375C19.4317 19.0792 20.7317 19 22.115 19C23.4983 19 24.7983 19.0792 26.015 19.2375C27.2317 19.3958 28.29 19.6125 29.19 19.8875C30.09 20.1625 30.8025 20.4792 31.3275 20.8375C31.8525 21.1958 32.115 21.5833 32.115 22V31C32.115 31.3833 31.8817 31.75 31.415 32.1C30.9483 32.45 30.3108 32.7583 29.5025 33.025C28.6942 33.2917 27.7442 33.5125 26.6525 33.6875C25.5608 33.8625 24.3817 33.9667 23.115 34V30H21.115V34ZM22.115 23C23.7317 23 25.1275 22.9042 26.3025 22.7125C27.4775 22.5208 28.415 22.3 29.115 22.05C29.115 21.9667 28.4817 21.7708 27.215 21.4625C25.9483 21.1542 24.2483 21 22.115 21C19.9817 21 18.2817 21.1542 17.015 21.4625C15.7483 21.7708 15.115 21.9667 15.115 22.05C15.815 22.3 16.7525 22.5208 17.9275 22.7125C19.1025 22.9042 20.4983 23 22.115 23ZM19.115 31.85V28H25.115V31.85C26.4483 31.7167 27.54 31.5208 28.39 31.2625C29.24 31.0042 29.815 30.775 30.115 30.575V23.8C29.1983 24.1667 28.0483 24.4583 26.665 24.675C25.2817 24.8917 23.765 25 22.115 25C20.465 25 18.9483 24.8917 17.565 24.675C16.1817 24.4583 15.0317 24.1667 14.115 23.8V30.575C14.415 30.775 14.99 31.0042 15.84 31.2625C16.69 31.5208 17.7817 31.7167 19.115 31.85Z" fill="#004B1E"/>
</svg>
