<svg width="40" height="40" viewBox="0 0 40 40" fill="none" xmlns="http://www.w3.org/2000/svg">
<rect width="40" height="40" rx="20" fill="#131B2E"/>
<path d="M20 28.3333C18.8472 28.3333 17.7639 28.1145 16.75 27.677C15.7361 27.2395 14.8542 26.6458 14.1042 25.8958C13.3542 25.1458 12.7604 24.2638 12.3229 23.25C11.8854 22.2361 11.6667 21.1527 11.6667 20C11.6667 18.8472 11.8854 17.7638 12.3229 16.75C12.7604 15.7361 13.3542 14.8541 14.1042 14.1041C14.8542 13.3541 15.7361 12.7604 16.75 12.3229C17.7639 11.8854 18.8472 11.6666 20 11.6666C21.1528 11.6666 22.2361 11.8854 23.25 12.3229C24.2639 12.7604 25.1458 13.3541 25.8958 14.1041C26.6458 14.8541 27.2396 15.7361 27.6771 16.75C28.1146 17.7638 28.3333 18.8472 28.3333 20C28.3333 21.1527 28.1146 22.2361 27.6771 23.25C27.2396 24.2638 26.6458 25.1458 25.8958 25.8958C25.1458 26.6458 24.2639 27.2395 23.25 27.677C22.2361 28.1145 21.1528 28.3333 20 28.3333ZM19.1667 26.625V25C18.7083 25 18.316 24.8368 17.9896 24.5104C17.6632 24.184 17.5 23.7916 17.5 23.3333V22.5L13.5 18.5C13.4583 18.75 13.4201 19 13.3854 19.25C13.3507 19.5 13.3333 19.75 13.3333 20C13.3333 21.6805 13.8854 23.1527 14.9896 24.4166C16.0938 25.6805 17.4861 26.4166 19.1667 26.625ZM24.9167 24.5C25.4861 23.875 25.9201 23.177 26.2188 22.4062C26.5174 21.6354 26.6667 20.8333 26.6667 20C26.6667 18.6388 26.2882 17.3958 25.5313 16.2708C24.7743 15.1458 23.7639 14.3333 22.5 13.8333V14.1666C22.5 14.625 22.3368 15.0173 22.0104 15.3437C21.684 15.6701 21.2917 15.8333 20.8333 15.8333H19.1667V17.5C19.1667 17.7361 19.0868 17.934 18.9271 18.0937C18.7674 18.2534 18.5694 18.3333 18.3333 18.3333H16.6667V20H21.6667C21.9028 20 22.1007 20.0798 22.2604 20.2395C22.4201 20.3993 22.5 20.5972 22.5 20.8333V23.3333H23.3333C23.6944 23.3333 24.0208 23.4409 24.3125 23.6562C24.6042 23.8715 24.8056 24.1527 24.9167 24.5Z" fill="white"/>
</svg>
